<?xml version="1.0" standalone="no"?>
<!DOCTYPE svg PUBLIC "-//W3C//DTD SVG 20010904//EN"
 "http://www.w3.org/TR/2001/REC-SVG-20010904/DTD/svg10.dtd">
<svg version="1.0" xmlns="http://www.w3.org/2000/svg"
 width="1000.000000pt" height="1000.000000pt" viewBox="0 0 1000.000000 1000.000000"
 preserveAspectRatio="xMidYMid meet">
<metadata>
Created by potrace 1.11, written by Peter Selinger 2001-2013
</metadata>
<g transform="translate(0.000000,1000.000000) scale(0.100000,-0.100000)"
fill="#000000" stroke="none">
<path d="M5449 8711 c-13 -10 -37 -46 -53 -80 -17 -34 -34 -60 -40 -60 -30 4
-56 -3 -70 -16 -8 -8 -19 -15 -24 -15 -6 0 -12 -7 -16 -15 -3 -8 -12 -15 -21
-15 -10 0 -28 -26 -47 -67 -17 -38 -44 -78 -59 -91 -15 -12 -39 -43 -53 -69
-57 -102 -69 -193 -52 -423 13 -177 -17 -411 -96 -743 -40 -169 -43 -178 -71
-192 -17 -8 -35 -15 -40 -15 -35 0 -47 -79 -23 -147 19 -53 7 -73 -42 -71 -56
2 -82 -10 -82 -36 0 -13 -7 -30 -17 -37 -15 -13 -16 -11 -9 16 18 77 18 173 1
224 -9 28 -20 53 -25 56 -15 9 -281 8 -290 -1 -22 -22 -34 -173 -21 -277 6
-56 14 -112 17 -123 5 -21 4 -21 -38 -13 -23 5 -59 12 -78 15 -50 10 -70 22
-70 45 0 10 -13 48 -29 82 -23 51 -35 67 -66 81 -31 15 -36 22 -32 43 11 60
-112 263 -159 263 -8 0 -14 6 -14 13 0 14 -45 39 -114 63 -49 18 -139 32 -243
39 -73 5 -89 10 -142 43 -75 46 -107 100 -96 165 7 47 23 80 78 159 l37 54 88
13 c124 19 135 21 154 35 31 23 53 405 29 511 -17 75 -43 159 -53 170 -4 5 -8
17 -8 27 0 43 -50 47 -258 17 -81 -12 -155 -22 -164 -23 -10 0 -17 -7 -15 -16
3 -20 -35 -20 -41 0 -5 13 -3 13 11 1 15 -12 17 -11 17 5 0 11 3 29 6 42 6 19
3 22 -23 22 -31 0 -37 8 -76 115 -11 30 -21 41 -39 43 -39 5 -59 -28 -72 -117
-6 -44 -14 -83 -19 -87 -4 -4 -7 -17 -7 -30 0 -18 -7 -23 -44 -28 -29 -5 -47
-13 -50 -24 -3 -9 -20 -25 -36 -34 -28 -16 -30 -21 -25 -55 4 -21 7 -99 8
-173 2 -116 0 -135 -14 -138 -12 -2 -18 9 -25 40 -8 39 -12 43 -42 46 -25 3
-35 10 -43 29 -7 20 -14 24 -32 19 -12 -3 -26 -6 -30 -6 -5 0 -7 -16 -5 -35 1
-23 -3 -39 -11 -44 -9 -6 -12 -18 -7 -37 4 -16 11 -52 15 -80 4 -29 12 -59 19
-67 7 -8 15 -46 18 -84 3 -44 11 -77 23 -93 12 -16 36 -109 65 -245 25 -121
55 -263 66 -315 36 -168 69 -333 85 -425 38 -212 37 -206 19 -219 -12 -9 -14
-19 -8 -37 4 -13 8 -41 9 -63 1 -23 8 -43 18 -51 12 -9 17 -27 17 -62 0 -59
17 -113 35 -113 7 0 16 -14 20 -31 4 -18 15 -33 25 -36 10 -3 21 -11 24 -19 6
-17 81 -19 122 -4 15 6 28 9 30 7 2 -2 14 -43 27 -93 13 -49 26 -96 28 -104 3
-10 -19 -22 -75 -42 l-78 -28 -40 41 c-34 34 -44 40 -66 34 -15 -4 -45 -8 -67
-9 -81 -5 -85 -6 -97 -32 -14 -31 -75 -64 -119 -64 -22 0 -39 -9 -60 -31 -16
-17 -29 -37 -29 -44 0 -7 -21 -25 -47 -40 -42 -25 -57 -28 -145 -29 -74 -1
-97 2 -93 11 3 10 43 217 70 368 28 152 46 261 51 306 3 30 8 57 10 61 2 3 1
13 -2 22 -6 16 -131 171 -218 270 l-48 56 37 51 c32 45 36 57 32 92 -9 65 -42
89 -134 100 -107 12 -112 11 -139 -13 -23 -23 -49 -23 -157 -4 -30 5 -45 2
-75 -19 -20 -13 -59 -30 -85 -37 -122 -33 -296 -270 -492 -675 -254 -523 -377
-930 -405 -1348 -20 -288 22 -618 110 -867 56 -158 93 -198 173 -186 50 8 83
34 104 83 13 33 12 41 -11 107 -82 238 -86 475 -11 771 43 170 82 279 148 410
70 140 117 207 216 305 93 92 221 171 248 154 8 -5 95 -133 194 -284 l180
-275 -7 -85 c-3 -47 -10 -89 -14 -95 -10 -14 7 -184 20 -200 5 -6 7 -25 4 -41
-4 -24 4 -42 45 -101 48 -68 53 -72 93 -76 26 -2 12 -4 -35 -5 l-79 -2 5 -50
c6 -61 20 -80 58 -80 20 0 38 -10 57 -30 23 -26 35 -31 77 -32 49 0 175 28
185 43 3 4 34 14 69 22 l64 15 11 -29 c14 -39 44 -45 101 -20 26 12 49 21 50
21 1 0 5 -26 8 -57 2 -32 10 -69 17 -83 6 -14 83 -86 171 -160 l160 -135 -6
-70 c-5 -70 -17 -210 -54 -620 -46 -507 -51 -775 -21 -1175 22 -282 98 -736
127 -747 23 -9 62 7 78 31 9 13 25 49 35 80 20 56 20 57 1 159 -33 172 -43
301 -43 562 0 273 18 539 57 843 36 274 41 306 80 455 56 216 58 222 88 225
14 2 36 14 49 27 13 14 29 25 37 25 8 0 23 7 33 17 17 15 18 15 18 -3 0 -11
23 -42 51 -71 44 -45 58 -53 114 -64 60 -12 64 -14 69 -45 5 -23 13 -34 31
-38 14 -4 25 -15 27 -29 4 -32 67 -38 75 -8 4 15 13 21 33 21 33 0 42 -8 105
-91 26 -32 53 -59 61 -59 8 0 14 -4 14 -9 0 -5 66 -70 148 -145 233 -214 280
-263 275 -289 -3 -15 5 -31 25 -50 27 -26 29 -32 20 -64 -11 -42 -8 -46 54
-63 43 -11 53 -10 102 10 58 23 60 27 71 100 4 25 14 65 22 90 9 29 18 116 24
240 5 107 11 206 14 220 5 24 24 235 45 505 12 146 22 183 57 196 22 8 24 14
22 56 l-3 46 64 33 c86 43 182 64 295 64 l93 0 6 -30 c6 -33 100 -140 122
-140 20 0 18 -75 -2 -106 -25 -37 -9 -61 98 -149 158 -130 150 -121 142 -161
-6 -31 -3 -39 18 -58 14 -11 35 -46 47 -76 44 -112 165 -246 268 -296 63 -31
88 -30 260 10 59 14 294 68 522 120 320 73 418 100 436 116 31 29 46 86 38
148 l-6 53 28 -11 c22 -8 33 -7 51 5 21 14 27 14 56 0 18 -8 45 -24 61 -37 24
-20 32 -21 67 -11 39 10 42 9 122 -45 418 -277 776 -814 947 -1420 42 -149 76
-304 87 -395 12 -103 88 -188 181 -203 40 -6 43 -5 63 27 21 32 21 43 16 204
-6 188 -26 322 -82 535 -102 393 -295 851 -506 1200 -136 226 -153 251 -162
243 -4 -4 -4 0 0 10 4 12 -1 20 -17 26 -13 5 -18 10 -11 10 8 1 3 15 -14 41
-15 22 -30 37 -35 34 -5 -3 -6 2 -3 10 7 17 -39 68 -52 58 -5 -4 -2 1 5 11 12
15 11 17 -9 17 -19 0 -20 2 -10 15 14 16 3 20 -19 6 -10 -7 -11 -13 -1 -32
l11 -24 -19 24 c-19 23 -19 24 0 43 14 14 16 23 8 38 -6 11 -16 20 -22 20 -7
0 -6 -5 2 -15 6 -8 10 -20 7 -27 -3 -8 -6 -6 -6 5 -1 10 -6 15 -12 12 -6 -4
-8 -14 -4 -22 5 -14 3 -14 -11 -2 -10 8 -12 15 -5 17 6 2 11 8 11 14 0 6 -7 8
-15 5 -8 -4 -17 -1 -21 5 -4 6 -3 8 3 5 6 -4 19 1 29 9 16 13 16 15 2 10 -13
-4 -15 -1 -11 12 6 15 4 15 -14 -1 -21 -18 -22 -18 -74 60 -57 85 -183 254
-236 318 -19 21 -31 45 -28 53 2 7 1 10 -4 7 -5 -3 -54 50 -108 117 -54 68
-118 143 -143 168 -25 25 -44 49 -42 53 1 5 -1 6 -6 3 -5 -3 -18 1 -28 9 -18
13 -17 14 11 9 16 -3 33 -11 37 -17 5 -8 8 -6 8 6 0 9 -7 17 -15 17 -8 0 -19
9 -25 20 -9 16 -8 18 5 14 8 -3 12 -11 8 -17 -4 -6 0 -8 10 -4 17 6 41 -15 30
-27 -4 -4 0 -4 9 -1 23 9 256 -273 237 -287 -11 -8 -11 -9 2 -5 21 7 144 -147
133 -165 -4 -6 -3 -8 3 -5 6 4 23 -9 37 -28 24 -31 25 -35 9 -44 -16 -10 -16
-10 4 -8 17 1 36 -17 86 -86 l64 -88 37 41 c41 45 40 43 25 90 -5 19 -12 48
-14 63 -8 52 -245 655 -275 700 -16 25 -42 49 -57 55 -35 13 -169 32 -228 32
-24 0 -47 5 -50 10 -3 6 -22 10 -41 10 -30 0 -51 -13 -137 -88 l-102 -87 -70
13 c-38 7 -102 15 -140 19 -67 5 -72 4 -104 -23 -30 -25 -33 -32 -28 -67 3
-23 -1 -53 -9 -73 -17 -42 -9 -81 23 -111 28 -27 29 -35 3 -58 -17 -15 -22
-16 -37 -4 -40 30 -72 70 -67 84 8 19 -55 155 -72 155 -6 0 -16 13 -22 28 -12
35 -99 102 -179 138 l-63 27 33 20 c17 11 65 28 106 38 41 10 84 27 96 39 12
11 35 20 52 20 34 0 73 38 73 70 0 20 37 56 48 46 4 -4 7 -35 7 -69 l0 -62 47
-9 c27 -5 51 -7 54 -3 3 3 8 33 11 66 3 34 12 66 19 72 42 34 416 101 513 91
42 -4 45 -3 107 62 40 42 68 81 75 106 7 22 17 40 23 40 6 0 54 35 107 78 304
245 361 294 432 366 78 79 167 194 167 215 0 6 11 33 24 59 28 56 46 135 46
202 0 60 -33 166 -64 205 l-23 29 49 47 c26 25 48 53 48 60 0 8 -18 41 -40 73
-30 45 -37 62 -28 68 21 12 129 9 178 -6 273 -84 437 -298 457 -598 7 -111 18
-128 81 -128 82 0 107 45 106 195 -2 255 -110 566 -263 755 -141 174 -275 284
-518 424 -67 39 -269 118 -398 157 -71 21 -142 6 -200 -44 -17 -14 -49 -28
-70 -32 -81 -13 -86 -15 -101 -50 -16 -39 -71 -85 -101 -85 -30 0 -73 -38 -73
-65 0 -12 -6 -28 -14 -34 -19 -16 -10 -76 16 -114 19 -26 19 -29 2 -80 -40
-123 -151 -315 -259 -447 -69 -84 -189 -200 -292 -284 -79 -63 -84 -66 -123
-60 -36 6 -43 3 -69 -25 -16 -17 -33 -31 -38 -31 -4 0 -25 -5 -45 -11 -33 -9
-39 -14 -44 -47 -5 -31 -13 -41 -47 -60 -22 -12 -41 -21 -42 -20 0 2 -13 20
-28 40 -26 35 -31 37 -80 37 -29 0 -71 2 -93 6 -36 6 -44 4 -58 -16 -14 -21
-24 -23 -90 -24 -69 0 -75 -2 -107 -33 -18 -17 -37 -32 -41 -32 -5 0 -14 -11
-20 -25 -10 -22 -15 -24 -52 -19 -51 8 -188 52 -201 65 -7 7 2 21 26 42 154
138 193 176 219 216 17 24 30 54 30 67 0 12 7 25 16 28 22 9 74 128 67 156 -4
13 -1 25 8 31 12 7 14 66 11 343 -4 507 -4 517 -30 534 -19 13 -22 24 -22 84
0 70 -20 138 -40 138 -6 0 -18 7 -26 15 -9 8 -24 15 -34 15 -14 0 -22 11 -29
43 -48 198 -157 468 -224 551 -62 79 -155 152 -251 197 -71 34 -123 37 -157
10z m-2342 -367 c-3 -3 -12 -4 -19 -1 -8 3 -5 6 6 6 11 1 17 -2 13 -5z m2226
-22 c-3 -12 -9 -22 -14 -22 -5 0 -3 11 3 25 13 30 20 28 11 -3z m-2233 -213
c0 -5 5 -7 10 -4 6 3 10 0 10 -7 0 -17 -42 -21 -52 -6 -3 7 -4 16 -2 20 8 12
34 10 34 -3z m2251 -295 c39 -12 65 -28 98 -63 57 -59 75 -67 101 -41 33 33
63 33 182 5 62 -15 135 -28 162 -29 43 -1 52 2 62 22 11 22 12 21 22 -25 26
-115 32 -158 32 -223 0 -49 4 -73 16 -84 19 -20 18 -20 60 0 39 19 48 41 42
114 -1 27 0 50 3 50 20 0 27 -665 8 -765 -11 -62 -29 -84 -67 -85 -36 0 -78
-29 -100 -69 -12 -20 -39 -54 -61 -76 -23 -21 -41 -44 -41 -51 0 -6 -7 -17
-16 -25 -14 -12 -15 -8 -10 37 3 27 6 118 8 203 3 140 1 155 -15 165 -16 9
-24 5 -51 -26 -35 -41 -46 -40 -46 2 0 15 -6 32 -12 37 -7 6 -93 34 -190 64
l-178 54 0 35 c0 49 -29 118 -52 126 -11 3 -27 -1 -37 -10 -11 -10 -36 -16
-65 -16 -43 0 -48 -2 -61 -32 -21 -47 -38 -66 -69 -78 -27 -10 -28 -9 -22 15
20 78 156 777 158 811 l3 41 41 -34 c23 -18 65 -40 95 -49z m-2720 1 c9 6 11
4 6 -8 -7 -18 21 -31 46 -22 15 6 34 -11 23 -22 -3 -3 -17 -5 -30 -5 -14 0
-23 -4 -21 -8 9 -14 -20 -18 -38 -5 -11 8 -17 26 -17 51 0 26 3 34 9 25 5 -8
14 -10 22 -6z m3512 -42 c3 -27 1 -54 -5 -61 -6 -7 -11 -47 -10 -90 l0 -77
-13 106 c-7 58 -15 114 -16 125 -4 23 8 44 25 44 9 0 15 -18 19 -47z m-3358
-159 c14 -9 25 -24 25 -34 0 -19 75 -90 94 -90 6 0 12 -21 13 -48 3 -57 30
-273 44 -359 9 -50 15 -63 29 -63 37 0 43 23 32 127 -6 54 -14 150 -18 213 -5
94 -4 113 7 103 7 -7 26 -13 41 -13 15 0 28 -4 28 -10 0 -5 11 -10 25 -10 22
0 24 -3 15 -19 -5 -11 -10 -37 -10 -58 0 -21 -4 -44 -9 -52 -17 -27 43 -131
111 -194 34 -31 67 -56 73 -54 5 2 40 -9 77 -24 59 -24 77 -27 135 -22 116 9
256 -28 246 -66 -2 -10 3 -55 11 -101 9 -46 15 -85 13 -87 -2 -2 -12 16 -21
41 -9 24 -31 58 -48 76 -35 37 -15 38 -238 -10 -80 -16 -150 -28 -156 -26 -5
2 -16 22 -23 45 -10 36 -15 41 -41 41 -20 0 -30 5 -30 15 0 25 -40 17 -50 -10
-6 -15 -17 -25 -30 -25 -11 0 -20 -6 -20 -14 0 -8 -6 -16 -12 -18 -8 -3 -12
-21 -12 -45 1 -39 0 -40 -42 -51 -37 -10 -44 -16 -44 -36 0 -16 -7 -27 -20
-31 -16 -5 -20 -15 -20 -46 0 -37 46 -284 56 -300 7 -12 -8 -91 -16 -82 -4 4
-13 25 -20 46 -10 32 -16 37 -41 37 -27 0 -35 12 -30 43 1 5 -3 25 -8 45 -6
20 -21 102 -35 182 -24 140 -75 422 -95 525 -6 28 -17 91 -26 140 -9 50 -20
112 -26 138 -14 74 -12 86 17 93 25 6 26 9 20 55 -4 27 -4 49 -1 49 3 0 17 -7
30 -16z m5115 -78 c0 -2 -7 -7 -16 -10 -8 -3 -12 -2 -9 4 6 10 25 14 25 6z
m45 -96 c-3 -5 -12 -10 -18 -10 -7 0 -6 4 3 10 19 12 23 12 15 0z m680 -197
c109 -54 192 -110 214 -142 18 -28 18 -28 -64 2 -54 20 -191 39 -230 31 -32
-6 -32 -6 -38 45 -3 27 -13 61 -22 75 -9 14 -14 30 -10 36 10 16 46 5 150 -47z
m-690 -315 c106 -138 193 -246 253 -315 59 -69 93 -81 127 -43 10 11 21 17 25
15 4 -3 19 4 33 15 35 27 42 26 68 -17 18 -30 23 -50 22 -112 0 -133 -25 -184
-173 -361 -67 -80 -82 -94 -219 -204 -49 -39 -168 -135 -265 -213 -99 -82
-184 -143 -196 -143 -11 0 -48 -11 -81 -26 -34 -14 -67 -24 -73 -22 -10 2 -6
39 16 148 50 256 49 280 -14 280 -24 0 -28 3 -23 19 5 17 -43 97 -173 288
l-35 53 17 38 c10 21 29 51 44 68 15 16 112 124 216 239 280 311 349 385 355
385 3 -1 38 -42 76 -92z m-2958 -200 c-3 -8 -6 -5 -6 6 -1 11 2 17 5 13 3 -3
4 -12 1 -19z m-3107 -168 c0 -5 -4 -10 -10 -10 -5 0 -10 5 -10 10 0 6 5 10 10
10 6 0 10 -4 10 -10z m1040 -295 c0 -16 6 -25 15 -25 12 0 12 -3 -2 -18 -24
-25 -36 -17 -28 19 4 19 3 29 -5 29 -6 0 -8 5 -5 10 11 18 25 10 25 -15z
m3950 -85 c0 -5 -5 -10 -11 -10 -5 0 -7 5 -4 10 3 6 8 10 11 10 2 0 4 -4 4
-10z m-232 -35 c-3 -3 -9 2 -12 12 -6 14 -5 15 5 6 7 -7 10 -15 7 -18z m187
-75 c3 -5 1 -10 -4 -10 -6 0 -11 5 -11 10 0 6 2 10 4 10 3 0 8 -4 11 -10z
m-202 -25 c-6 -17 -23 -20 -23 -5 0 6 5 10 11 10 5 0 7 5 3 12 -4 7 -3 8 4 4
6 -4 9 -13 5 -21z m407 4 c0 -15 -18 -19 -23 -6 -3 8 1 14 9 14 8 0 14 -4 14
-8z m-70 -9 c0 -5 -5 -10 -11 -10 -5 0 -7 5 -4 10 3 6 8 10 11 10 2 0 4 -4 4
-10z m-236 -95 c3 -8 1 -15 -4 -15 -6 0 -10 7 -10 15 0 8 2 15 4 15 2 0 6 -7
10 -15z m306 -29 c0 -2 -7 -7 -16 -10 -8 -3 -12 -2 -9 4 6 10 25 14 25 6z m90
-102 c0 -2 -12 -4 -27 -4 -21 0 -24 3 -14 9 13 8 41 5 41 -5z m-5749 -200 c10
-12 0 -26 -53 -82 -84 -87 -182 -212 -220 -279 -34 -60 -40 -66 -28 -25 47
158 139 373 218 510 l37 63 17 -86 c9 -48 22 -93 29 -101z m5589 156 c0 -5 -4
-10 -10 -10 -5 0 -10 5 -10 10 0 6 5 10 10 10 6 0 10 -4 10 -10z m-86 -165 c3
-8 1 -15 -4 -15 -6 0 -10 7 -10 15 0 8 2 15 4 15 2 0 6 -7 10 -15z m-3854
-149 c0 -2 -8 -10 -17 -17 -16 -13 -17 -12 -4 4 13 16 21 21 21 13z m371 -453
c-12 -20 -14 -14 -5 12 4 9 9 14 11 11 3 -2 0 -13 -6 -23z m42 16 c-6 -6 -9
-19 -6 -28 4 -13 3 -14 -5 -1 -10 14 1 40 16 40 3 0 1 -5 -5 -11z m-82 -56
c-12 -20 -14 -14 -5 12 4 9 9 14 11 11 3 -2 0 -13 -6 -23z m1188 -152 c-6 -2
-18 4 -27 13 -15 15 -15 15 10 4 15 -7 23 -15 17 -17z m-2235 -176 c23 -15 26
-24 26 -77 0 -52 4 -63 29 -88 16 -16 41 -32 57 -35 47 -11 54 -14 54 -24 0
-23 -50 -23 -87 0 -115 69 -137 93 -161 166 -16 50 -22 93 -22 154 l1 84 38
-82 c23 -48 50 -88 65 -98z m4754 87 c2 -7 -2 -10 -12 -6 -9 3 -16 11 -16 16
0 13 23 5 28 -10z m202 -33 c0 -6 -4 -7 -10 -4 -5 3 -10 11 -10 16 0 6 5 7 10
4 6 -3 10 -11 10 -16z m-580 -75 c0 0 -10 -9 -22 -20 -19 -15 -20 -16 -9 -1
15 20 2 23 -19 5 -12 -11 -12 -10 -1 4 7 9 21 16 32 15 10 -1 19 -2 19 -3z
m239 -45 c24 -19 30 -29 21 -34 -9 -5 -11 -4 -6 3 7 11 -6 17 -27 13 -5 -1 -6
3 -3 8 3 5 -5 12 -19 15 -14 4 -25 10 -25 15 0 15 25 7 59 -20z m-149 16 c0
-2 -6 -8 -13 -14 -10 -8 -14 -7 -14 2 0 8 6 14 14 14 7 0 13 -1 13 -2z m-164
-17 c-3 -24 -17 -37 -31 -32 -11 5 -12 11 -4 25 11 21 38 26 35 7z m-53 -43
c4 -8 1 -17 -5 -21 -7 -5 -8 -2 -3 6 6 10 2 12 -16 7 -23 -6 -23 -5 -5 8 24
18 23 18 29 0z m-29 -33 c2 -4 -4 -8 -14 -8 -10 0 -16 4 -14 8 3 4 9 8 14 8 5
0 11 -4 14 -8z m-3611 -57 c-3 -9 -8 -14 -10 -11 -3 3 -2 9 2 15 9 16 15 13 8
-4z m36 -11 c-14 -18 -24 -11 -15 11 3 9 11 13 16 10 8 -5 7 -11 -1 -21z
m3501 2 c0 -2 -8 -10 -17 -17 -16 -13 -17 -12 -4 4 13 16 21 21 21 13z m-1972
-57 c-20 -13 -28 -11 -22 5 3 8 12 12 21 9 12 -5 12 -7 1 -14z m339 -105 c-3
-3 -12 -4 -19 -1 -8 3 -5 6 6 6 11 1 17 -2 13 -5z m-262 -14 c-3 -5 -11 -10
-16 -10 -6 0 -7 5 -4 10 3 6 11 10 16 10 6 0 7 -4 4 -10z m2016 -47 c13 -16
12 -17 -3 -5 -9 8 -23 10 -29 6 -8 -4 -9 -3 -5 4 10 17 21 15 37 -5z m-289
-45 c-7 -7 -12 -8 -12 -2 0 14 12 26 19 19 2 -3 -1 -11 -7 -17z m359 -5 c13
-16 12 -17 -3 -4 -10 7 -18 15 -18 17 0 8 8 3 21 -13z m-1248 0 c-7 -2 -19 -2
-25 0 -7 3 -2 5 12 5 14 0 19 -2 13 -5z m-116 -19 c-3 -3 -12 -4 -19 -1 -8 3
-5 6 6 6 11 1 17 -2 13 -5z m-554 -29 c-7 -21 -12 -19 -10 4 0 11 5 18 9 15 4
-3 5 -11 1 -19z m3112 5 c-3 -5 -11 -10 -16 -10 -6 0 -7 5 -4 10 3 6 11 10 16
10 6 0 7 -4 4 -10z m-2985 -18 c0 -5 -7 -9 -15 -9 -8 0 -12 4 -9 9 3 4 9 8 15
8 5 0 9 -4 9 -8z m1925 -42 c12 -19 -12 -10 -31 11 -19 22 -19 22 3 10 12 -6
25 -16 28 -21z m-805 -133 c0 -2 -10 -12 -22 -23 l-23 -19 19 23 c18 21 26 27
26 19z m50 -26 c-5 -11 -20 -23 -31 -26 -27 -9 -79 -61 -71 -71 4 -4 -8 3 -25
15 -18 12 -33 25 -33 28 0 3 7 0 15 -7 8 -7 15 -9 15 -4 0 5 5 2 10 -6 8 -13
10 -12 10 3 0 9 6 17 14 17 8 0 23 10 33 23 34 40 82 62 63 28z m1200 -77 c0
4 10 0 22 -8 18 -13 23 -13 32 -1 9 12 14 12 29 0 15 -10 16 -18 8 -33 -14
-27 5 -45 31 -29 15 10 20 9 28 -3 5 -9 5 -19 -1 -26 -7 -9 -5 -22 6 -44 15
-30 15 -30 -4 -18 -11 6 -17 16 -15 20 3 4 0 8 -6 8 -7 0 -9 -8 -5 -20 12 -38
-19 -20 -105 62 -47 44 -76 76 -64 70 16 -9 21 -8 21 3 0 8 -7 17 -16 20 -13
5 -14 7 -1 15 11 7 19 5 28 -7 6 -9 12 -13 12 -9z m970 -290 c73 -107 133
-201 134 -208 1 -7 15 -30 32 -52 45 -57 82 -122 61 -105 -19 15 -23 1 -5 -17
18 -18 1 -14 -21 5 -11 9 -18 20 -15 25 3 4 0 8 -5 8 -6 0 -11 5 -11 12 0 6 9
3 20 -7 28 -25 25 -9 -4 23 -40 46 -92 99 -72 75 14 -16 17 -26 9 -34 -7 -7
-22 3 -49 36 -22 25 -56 62 -76 82 -21 20 -38 43 -38 50 0 8 -4 12 -8 9 -11
-6 -106 85 -110 105 -1 9 5 22 13 29 13 11 23 4 67 -44 28 -32 61 -62 72 -68
12 -6 -10 22 -49 61 -70 71 -70 72 -81 146 -5 40 -7 72 -3 69 4 -2 66 -92 139
-200z m-825 88 c-3 -3 -11 0 -18 7 -9 10 -8 11 6 5 10 -3 15 -9 12 -12z
m-2599 -124 c-3 -24 -9 -97 -12 -163 -4 -72 -12 -126 -19 -135 -7 -8 -15 -58
-19 -110 -7 -101 -14 -140 -25 -140 -3 0 -46 38 -96 85 -49 46 -95 84 -100 85
-6 0 -55 45 -110 101 l-100 101 85 -5 c116 -8 156 -21 175 -57 26 -50 95 -32
110 27 3 16 20 58 36 95 16 36 29 75 29 87 0 34 19 71 36 71 14 0 16 -7 10
-42z m3588 -288 c-13 -13 -49 24 -39 40 5 9 14 6 28 -9 15 -14 18 -24 11 -31z
m95 -114 c-3 -3 -11 5 -18 17 -13 21 -12 21 5 5 10 -10 16 -20 13 -22z"/>
<path d="M2625 7770 c3 -5 8 -10 11 -10 2 0 4 5 4 10 0 6 -5 10 -11 10 -5 0
-7 -4 -4 -10z"/>
<path d="M6570 4554 c0 -8 5 -12 10 -9 6 4 8 11 5 16 -9 14 -15 11 -15 -7z"/>
<path d="M8190 3396 c0 -2 8 -10 18 -17 15 -13 16 -12 3 4 -13 16 -21 21 -21
13z"/>
<path d="M8240 3342 c0 -12 19 -26 26 -19 2 2 -2 10 -11 17 -9 8 -15 8 -15 2z"/>
<path d="M8280 3336 c0 -2 8 -10 18 -17 15 -13 16 -12 3 4 -13 16 -21 21 -21
13z"/>
<path d="M8000 4198 c0 -9 7 -19 16 -22 15 -6 15 -4 3 11 -7 10 -15 20 -16 22
-2 2 -3 -3 -3 -11z"/>
<path d="M8025 4150 c-3 -6 4 -14 17 -19 13 -6 17 -10 11 -10 -7 -1 -13 -6
-13 -12 0 -8 4 -8 14 0 9 7 17 8 20 2 3 -5 0 -11 -6 -14 -7 -2 -9 -8 -5 -13 4
-5 12 -2 17 5 5 9 1 24 -13 43 -22 30 -32 34 -42 18z"/>
<path d="M8098 4074 c7 -13 8 -24 1 -31 -6 -6 -3 -16 9 -29 10 -10 19 -23 21
-29 5 -17 7 -16 19 9 9 21 9 24 -3 19 -18 -6 -20 13 -2 21 6 3 3 4 -8 3 -14
-1 -19 3 -17 14 1 9 -5 23 -15 30 -15 13 -15 12 -5 -7z"/>
</g>
</svg>
